<?xml version="1.0" encoding="utf-8"?>
<!-- Generator: Adobe Illustrator 23.0.4, SVG Export Plug-In . SVG Version: 6.00 Build 0)  -->
<svg version="1.1" id="Layer_1" xmlns="http://www.w3.org/2000/svg" xmlns:xlink="http://www.w3.org/1999/xlink" x="0px" y="0px"
	 viewBox="0 0 466.8 958.1" style="enable-background:new 0 0 466.8 958.1;" xml:space="preserve">
<style type="text/css">
	.st0{fill:#F4F4F4;}
	.st1{fill:#FFFFFF;}
	.st2{fill:none;stroke:#FFFFFF;stroke-width:12;stroke-miterlimit:10;}
	.st3{fill:none;stroke:#FFFFFF;stroke-width:11.2143;stroke-miterlimit:10;}
	.st4{fill:none;stroke:#FFFFFF;stroke-width:10.4286;stroke-miterlimit:10;}
	.st5{fill:none;stroke:#FFFFFF;stroke-width:9.6429;stroke-miterlimit:10;}
	.st6{fill:none;stroke:#FFFFFF;stroke-width:8.8571;stroke-miterlimit:10;}
	.st7{fill:none;stroke:#FFFFFF;stroke-width:8.0714;stroke-miterlimit:10;}
	.st8{fill:none;stroke:#FFFFFF;stroke-width:7.2857;stroke-miterlimit:10;}
	.st9{fill:none;stroke:#FFFFFF;stroke-width:6.5;stroke-miterlimit:10;}
</style>
<path class="st0" d="M466.8,121.4c0,0-23.3-2.3-49.3-45.3c-32.9-54.4-69-72.1-110.1-75.2c-62.9-4.9-35.9,40.2-62.9,50.2
	c-55-2-75,9-93,38s-44,44-97,57s-58,92-53,141s54,89,46,167s-20,168,60,201s121,87,150,155s98,42,134,50s75.3,44,75.3,53V121.4z"/>
<polygon class="st1" points="194.9,625.5 166.1,597.5 182.8,580.4 211.6,608.3 239.5,579.5 256.7,596.2 228.8,625 257.6,652.9 
	240.9,670.1 212.1,642.2 184.1,671 166.9,654.3 "/>
<g>
	<circle class="st2" cx="361.7" cy="319.5" r="9.6"/>
	<circle class="st3" cx="401.8" cy="351.2" r="9.6"/>
	<circle class="st4" cx="441.9" cy="382.9" r="9.6"/>
</g>
<g>
	<circle class="st2" cx="321.2" cy="345.9" r="9.6"/>
	<circle class="st3" cx="361.3" cy="377.6" r="9.6"/>
	<circle class="st4" cx="401.4" cy="409.3" r="9.6"/>
	<circle class="st5" cx="441.6" cy="441" r="9.6"/>
</g>
<g>
	<circle class="st2" cx="280.7" cy="372.4" r="9.6"/>
	<circle class="st3" cx="320.8" cy="404" r="9.6"/>
	<circle class="st4" cx="361" cy="435.7" r="9.6"/>
	<circle class="st5" cx="401.1" cy="467.4" r="9.6"/>
	<circle class="st6" cx="441.2" cy="499" r="9.6"/>
</g>
<g>
	<circle class="st2" cx="240.2" cy="398.8" r="9.6"/>
	<circle class="st3" cx="280.4" cy="430.5" r="9.6"/>
	<circle class="st4" cx="320.5" cy="462.1" r="9.6"/>
	<circle class="st5" cx="360.6" cy="493.8" r="9.6"/>
	<circle class="st6" cx="400.8" cy="525.5" r="9.6"/>
	<circle class="st7" cx="440.9" cy="557.1" r="9.6"/>
</g>
<g>
	<circle class="st2" cx="199.8" cy="425.2" r="9.6"/>
	<circle class="st3" cx="239.9" cy="456.9" r="9.6"/>
	<circle class="st4" cx="280" cy="488.6" r="9.6"/>
	<circle class="st5" cx="320.2" cy="520.2" r="9.6"/>
	<circle class="st6" cx="360.3" cy="551.9" r="9.6"/>
	<circle class="st7" cx="400.4" cy="583.6" r="9.6"/>
	<circle class="st8" cx="440.6" cy="615.2" r="9.6"/>
</g>
<g>
	<circle class="st2" cx="159.3" cy="451.6" r="9.6"/>
	<circle class="st3" cx="199.4" cy="483.3" r="9.6"/>
	<circle class="st4" cx="239.6" cy="515" r="9.6"/>
	<circle class="st5" cx="279.7" cy="546.6" r="9.6"/>
	<circle class="st6" cx="319.8" cy="578.3" r="9.6"/>
	<circle class="st7" cx="360" cy="610" r="9.6"/>
	<circle class="st8" cx="400.1" cy="641.7" r="9.6"/>
	<circle class="st9" cx="440.2" cy="673.3" r="9.6"/>
</g>
</svg>
