<?xml version="1.0" encoding="utf-8"?>
<!-- Generator: Adobe Illustrator 23.0.4, SVG Export Plug-In . SVG Version: 6.00 Build 0)  -->
<svg version="1.1" id="Layer_1" xmlns="http://www.w3.org/2000/svg" xmlns:xlink="http://www.w3.org/1999/xlink" x="0px" y="0px"
	 viewBox="0 0 854 664.1" style="enable-background:new 0 0 854 664.1;" xml:space="preserve">
<style type="text/css">
	.st0{fill:#EEEEEF;}
	.st1{fill:none;stroke:#EEEEEF;stroke-width:12;stroke-miterlimit:10;}
	.st2{fill:none;stroke:#EFEFEF;stroke-width:11.2143;stroke-miterlimit:10;}
	.st3{fill:none;stroke:#EFEFEF;stroke-width:10.4286;stroke-miterlimit:10;}
	.st4{fill:none;stroke:#F0F0F0;stroke-width:9.6429;stroke-miterlimit:10;}
	.st5{fill:none;stroke:#F0F0F0;stroke-width:8.8571;stroke-miterlimit:10;}
	.st6{fill:none;stroke:#F0F0F0;stroke-width:8.0714;stroke-miterlimit:10;}
	.st7{fill:none;stroke:#F1F1F1;stroke-width:7.2857;stroke-miterlimit:10;}
	.st8{fill:none;stroke:#F1F1F1;stroke-width:6.5;stroke-miterlimit:10;}
	.st9{fill:none;stroke:#F1F1F1;stroke-width:5.7143;stroke-miterlimit:10;}
	.st10{fill:none;stroke:#F2F1F2;stroke-width:4.9286;stroke-miterlimit:10;}
	.st11{fill:none;stroke:#F2F2F2;stroke-width:4.1429;stroke-miterlimit:10;}
	.st12{fill:none;stroke:#F3F2F2;stroke-width:3.3571;stroke-miterlimit:10;}
	.st13{fill:none;stroke:#F3F2F3;stroke-width:2.5714;stroke-miterlimit:10;}
	.st14{fill:none;stroke:#F3F3F3;stroke-width:1.7857;stroke-miterlimit:10;}
	.st15{fill:none;stroke:#F3F3F3;stroke-miterlimit:10;}
</style>
<polygon class="st0" points="776,319 804.4,347.4 787.5,364.3 759.1,335.9 730.7,364.3 713.8,347.4 742.2,319 713.8,290.6 
	730.7,273.7 759.1,302.1 787.5,273.7 804.4,290.6 "/>
<g>
	<circle class="st1" cx="604.7" cy="622.4" r="9.6"/>
	<circle class="st2" cx="565" cy="590.2" r="9.6"/>
	<circle class="st3" cx="525.4" cy="557.9" r="9.6"/>
	<circle class="st4" cx="485.7" cy="525.6" r="9.6"/>
	<circle class="st5" cx="446.1" cy="493.3" r="9.6"/>
	<circle class="st6" cx="406.4" cy="461.1" r="9.6"/>
	<circle class="st7" cx="366.8" cy="428.8" r="9.6"/>
	<circle class="st8" cx="327.1" cy="396.5" r="9.6"/>
	<circle class="st9" cx="287.5" cy="364.2" r="9.6"/>
	<circle class="st10" cx="247.8" cy="332" r="9.6"/>
	<circle class="st11" cx="208.2" cy="299.7" r="9.6"/>
	<circle class="st12" cx="168.5" cy="267.4" r="9.6"/>
	<circle class="st13" cx="128.9" cy="235.2" r="9.6"/>
	<circle class="st14" cx="89.2" cy="202.9" r="9.6"/>
	<circle class="st15" cx="49.6" cy="170.6" r="9.6"/>
</g>
<g>
	<circle class="st1" cx="645.5" cy="596.6" r="9.6"/>
	<circle class="st2" cx="605.9" cy="564.4" r="9.6"/>
	<circle class="st3" cx="566.2" cy="532.1" r="9.6"/>
	<circle class="st4" cx="526.6" cy="499.8" r="9.6"/>
	<circle class="st5" cx="486.9" cy="467.5" r="9.6"/>
	<circle class="st6" cx="447.3" cy="435.3" r="9.6"/>
	<circle class="st7" cx="407.6" cy="403" r="9.6"/>
	<circle class="st8" cx="368" cy="370.7" r="9.6"/>
	<circle class="st9" cx="328.3" cy="338.4" r="9.6"/>
	<circle class="st10" cx="288.7" cy="306.2" r="9.6"/>
	<circle class="st11" cx="249" cy="273.9" r="9.6"/>
	<circle class="st12" cx="209.4" cy="241.6" r="9.6"/>
	<circle class="st13" cx="169.7" cy="209.3" r="9.6"/>
	<circle class="st14" cx="130.1" cy="177.1" r="9.6"/>
	<circle class="st15" cx="90.5" cy="144.8" r="9.6"/>
</g>
<g>
	<circle class="st1" cx="686.4" cy="570.8" r="9.6"/>
	<circle class="st2" cx="646.7" cy="538.5" r="9.6"/>
	<circle class="st3" cx="607.1" cy="506.3" r="9.6"/>
	<circle class="st4" cx="567.4" cy="474" r="9.6"/>
	<circle class="st5" cx="527.8" cy="441.7" r="9.6"/>
	<circle class="st6" cx="488.1" cy="409.4" r="9.6"/>
	<circle class="st7" cx="448.5" cy="377.2" r="9.6"/>
	<circle class="st8" cx="408.9" cy="344.9" r="9.6"/>
	<circle class="st9" cx="369.2" cy="312.6" r="9.6"/>
	<circle class="st10" cx="329.6" cy="280.4" r="9.6"/>
	<circle class="st11" cx="289.9" cy="248.1" r="9.6"/>
	<circle class="st12" cx="250.3" cy="215.8" r="9.6"/>
	<circle class="st13" cx="210.6" cy="183.5" r="9.6"/>
	<circle class="st14" cx="171" cy="151.3" r="9.6"/>
	<circle class="st15" cx="131.3" cy="119" r="9.6"/>
</g>
<g>
	<circle class="st1" cx="727.3" cy="545" r="9.6"/>
	<circle class="st2" cx="687.6" cy="512.7" r="9.6"/>
	<circle class="st3" cx="648" cy="480.5" r="9.6"/>
	<circle class="st4" cx="608.3" cy="448.2" r="9.6"/>
	<circle class="st5" cx="568.7" cy="415.9" r="9.6"/>
	<circle class="st6" cx="529" cy="383.6" r="9.6"/>
	<circle class="st7" cx="489.4" cy="351.4" r="9.6"/>
	<circle class="st8" cx="449.7" cy="319.1" r="9.6"/>
	<circle class="st9" cx="410.1" cy="286.8" r="9.6"/>
	<circle class="st10" cx="370.4" cy="254.5" r="9.6"/>
	<circle class="st11" cx="330.8" cy="222.3" r="9.6"/>
	<circle class="st12" cx="291.1" cy="190" r="9.6"/>
	<circle class="st13" cx="251.5" cy="157.7" r="9.6"/>
	<circle class="st14" cx="211.8" cy="125.5" r="9.6"/>
	<circle class="st15" cx="172.2" cy="93.2" r="9.6"/>
</g>
<g>
	<circle class="st1" cx="768.1" cy="519.2" r="9.6"/>
	<circle class="st2" cx="728.5" cy="486.9" r="9.6"/>
	<circle class="st3" cx="688.8" cy="454.7" r="9.6"/>
	<circle class="st4" cx="649.2" cy="422.4" r="9.6"/>
	<circle class="st5" cx="609.5" cy="390.1" r="9.6"/>
	<circle class="st6" cx="569.9" cy="357.8" r="9.6"/>
	<circle class="st7" cx="530.2" cy="325.6" r="9.6"/>
	<circle class="st8" cx="490.6" cy="293.3" r="9.6"/>
	<circle class="st9" cx="450.9" cy="261" r="9.6"/>
	<circle class="st10" cx="411.3" cy="228.7" r="9.6"/>
	<circle class="st11" cx="371.6" cy="196.5" r="9.6"/>
	<circle class="st12" cx="332" cy="164.2" r="9.6"/>
	<circle class="st13" cx="292.3" cy="131.9" r="9.6"/>
	<circle class="st14" cx="252.7" cy="99.6" r="9.6"/>
	<circle class="st15" cx="213" cy="67.4" r="9.6"/>
</g>
<g>
	<circle class="st1" cx="809" cy="493.4" r="9.6"/>
	<circle class="st2" cx="769.3" cy="461.1" r="9.6"/>
	<circle class="st3" cx="729.7" cy="428.8" r="9.6"/>
	<circle class="st4" cx="690" cy="396.6" r="9.6"/>
	<circle class="st5" cx="650.4" cy="364.3" r="9.6"/>
	<circle class="st6" cx="610.7" cy="332" r="9.6"/>
	<circle class="st7" cx="571.1" cy="299.7" r="9.6"/>
	<circle class="st8" cx="531.4" cy="267.5" r="9.6"/>
	<circle class="st9" cx="491.8" cy="235.2" r="9.6"/>
	<circle class="st10" cx="452.2" cy="202.9" r="9.6"/>
	<circle class="st11" cx="412.5" cy="170.7" r="9.6"/>
	<circle class="st12" cx="372.9" cy="138.4" r="9.6"/>
	<circle class="st13" cx="333.2" cy="106.1" r="9.6"/>
	<circle class="st14" cx="293.6" cy="73.8" r="9.6"/>
	<circle class="st15" cx="253.9" cy="41.6" r="9.6"/>
</g>
</svg>
